<?xml version="1.0" encoding="utf-8"?>
<!-- Generator: Adobe Illustrator 26.0.3, SVG Export Plug-In . SVG Version: 6.00 Build 0)  -->
<svg version="1.1" id="Layer_1" xmlns="http://www.w3.org/2000/svg" xmlns:xlink="http://www.w3.org/1999/xlink" x="0px" y="0px"
	 viewBox="0 0 132 132" style="enable-background:new 0 0 132 132;" xml:space="preserve">
<path d="M66.01,2.93C48.88,2.93,46.73,3,40,3.31c-6.71,0.31-11.3,1.37-15.31,2.93c-4.15,1.61-7.67,3.77-11.17,7.27
	c-3.51,3.51-5.66,7.02-7.28,11.17c-1.56,4.01-2.63,8.6-2.93,15.31C3,46.72,2.93,48.87,2.93,66S3,85.27,3.31,92
	c0.31,6.71,1.37,11.3,2.93,15.31c1.61,4.15,3.77,7.67,7.27,11.17c3.5,3.51,7.02,5.67,11.17,7.28c4.01,1.56,8.6,2.62,15.31,2.93
	c6.73,0.31,8.88,0.38,26,0.38c17.13,0,19.27-0.07,26-0.38c6.71-0.31,11.3-1.37,15.32-2.93c4.15-1.61,7.66-3.77,11.17-7.28
	c3.51-3.51,5.66-7.02,7.28-11.17c1.55-4.01,2.61-8.6,2.93-15.31c0.3-6.73,0.38-8.87,0.38-26s-0.08-19.28-0.38-26.01
	c-0.32-6.71-1.38-11.3-2.93-15.31c-1.62-4.15-3.77-7.67-7.28-11.17c-3.51-3.51-7.02-5.66-11.17-7.27
	c-4.02-1.56-8.61-2.62-15.32-2.93c-6.73-0.31-8.87-0.38-26-0.38L66.01,2.93z M60.35,14.29c1.68,0,3.55,0,5.66,0
	c16.84,0,18.84,0.06,25.49,0.36c6.15,0.28,9.49,1.31,11.71,2.17c2.94,1.14,5.04,2.51,7.25,4.72c2.21,2.21,3.57,4.31,4.72,7.25
	c0.86,2.22,1.89,5.56,2.17,11.71c0.3,6.65,0.37,8.65,0.37,25.48s-0.07,18.83-0.37,25.48c-0.28,6.15-1.31,9.49-2.17,11.71
	c-1.14,2.94-2.51,5.04-4.72,7.25c-2.21,2.21-4.3,3.57-7.25,4.72c-2.22,0.87-5.56,1.89-11.71,2.17c-6.65,0.3-8.65,0.37-25.49,0.37
	c-16.84,0-18.84-0.07-25.49-0.37c-6.15-0.28-9.49-1.31-11.71-2.17c-2.94-1.14-5.05-2.51-7.25-4.72c-2.21-2.21-3.57-4.3-4.72-7.25
	c-0.86-2.22-1.89-5.56-2.17-11.71c-0.3-6.65-0.36-8.65-0.36-25.49s0.06-18.83,0.36-25.48c0.28-6.15,1.31-9.49,2.17-11.71
	c1.14-2.94,2.51-5.05,4.72-7.25s4.31-3.57,7.25-4.72c2.22-0.87,5.56-1.89,11.71-2.17c5.82-0.26,8.07-0.34,19.83-0.35L60.35,14.29z
	 M99.67,24.77c-4.18,0-7.57,3.39-7.57,7.57c0,4.18,3.39,7.57,7.57,7.57c4.18,0,7.57-3.39,7.57-7.57S103.85,24.76,99.67,24.77
	L99.67,24.77z M66.01,33.61c-17.89,0-32.39,14.5-32.39,32.39s14.5,32.38,32.39,32.38c17.89,0,32.39-14.5,32.39-32.38
	S83.89,33.61,66.01,33.61L66.01,33.61z M66.01,44.98c11.61,0,21.02,9.41,21.02,21.02c0,11.61-9.41,21.02-21.02,21.02
	c-11.61,0-21.02-9.41-21.02-21.02C44.98,54.39,54.39,44.98,66.01,44.98z"/>
</svg>
