<?xml version="1.0" encoding="utf-8"?>
<!-- Generator: Adobe Illustrator 26.0.3, SVG Export Plug-In . SVG Version: 6.00 Build 0)  -->
<svg version="1.1" id="Layer_1" xmlns="http://www.w3.org/2000/svg" xmlns:xlink="http://www.w3.org/1999/xlink" x="0px" y="0px"
	 viewBox="0 0 30 30" style="enable-background:new 0 0 30 30;" xml:space="preserve">
<g>
	<g>
		<g>
			<circle cx="11.79" cy="16.83" r="1.48"/>
			<circle cx="18.31" cy="16.83" r="1.48"/>
			<path d="M18.61,20.19c0.1,0.2,0.1,0.39,0.2,0.49c-1.09,0.99-2.96,1.09-3.55,1.09c-0.59,0-2.57-0.1-3.55-1.09
				c-0.2-0.1-0.2-0.3,0-0.49c0.1-0.2,0.3-0.2,0.49,0c0.59,0.69,1.97,0.89,2.96,0.89s2.37-0.2,2.96-0.89
				C18.21,19.99,18.41,19.99,18.61,20.19z"/>
			<path d="M14.66,0.74C6.76,0.93,0.54,7.45,0.73,15.35c0.2,7.6,6.32,13.72,13.82,14.02c7.9,0.2,14.51-6.02,14.71-13.92v-0.79
				C29.07,6.76,22.56,0.54,14.66,0.74z M23.35,17.23v0.59c0,3.26-3.75,5.83-8.39,5.83c-4.64,0-8.39-2.57-8.39-5.83v-0.59
				c-1.09-0.49-1.48-1.68-1.09-2.76c0.3-0.79,1.09-1.28,1.88-1.18c0.59,0,1.09,0.2,1.48,0.59c1.68-1.09,3.65-1.78,5.63-1.78
				l1.09-4.94c0-0.1,0.1-0.2,0.1-0.2c0.1-0.1,0.2-0.1,0.3-0.1l3.46,0.79c0.39-0.69,1.28-1.09,1.97-0.69
				c0.69,0.39,1.09,1.28,0.69,1.97c-0.39,0.69-1.28,1.09-1.97,0.69c-0.49-0.2-0.79-0.69-0.79-1.28l-3.06-0.69l-0.99,4.44
				c2.17,0.1,4.15,0.79,5.53,1.78c0.79-0.79,2.17-0.79,2.96,0c0.39,0.39,0.59,0.89,0.59,1.48C24.63,16.24,24.04,16.93,23.35,17.23z"
				/>
		</g>
	</g>
</g>
</svg>
